<svg width="148" height="353" viewBox="0 0 148 353" fill="none" xmlns="http://www.w3.org/2000/svg">
<path d="M46 35C52.4972 31.5603 47.8082 18.4157 49.6667 12.3333C52.1543 4.19192 64.5055 2.50479 71.3889 2.00001C88.5976 0.738037 108.258 5.98255 123 14.8889C136.894 23.2832 148.484 45.1309 145.333 61.4445C142.048 78.4581 119.294 93.1394 103.389 95.2222C90.937 96.8528 81.4971 87.1365 70.9444 82.0556C65.5255 79.4464 57.9517 77.4162 54.3333 72.3333C48.5916 64.2676 46.1368 53.0465 44.5556 43.3333C44.0824 40.427 46.2541 22.6271 49 24" stroke="#BC2424" stroke-width="3" stroke-linecap="round"/>
<path d="M92 97C90.2091 114.909 85.9453 133.279 82.4444 150.889C75.5212 185.714 67.2441 220.733 55.6667 254.333C51.2501 267.151 46.9195 280.141 42 292.778C37.4638 304.43 41.9079 290.744 43 287" stroke="#BC2424" stroke-width="3" stroke-linecap="round"/>
<path d="M81 162C77.8715 151.989 65.2183 145.284 57.3333 139.722C57.0245 139.504 40.8174 126.522 46 133" stroke="#BC2424" stroke-width="3" stroke-linecap="round"/>
<path d="M83 161C94.3351 161.291 106.045 162.387 117 158.778C123.585 156.608 129.128 153.982 136 153" stroke="#BC2424" stroke-width="3" stroke-linecap="round"/>
<path d="M39 303C39.0746 302.403 24.7714 309.628 22.4444 310.778C16.5146 313.707 10.3649 316.178 4.44443 319.111C0.888277 320.873 1.99813 320.998 3.99999 323" stroke="#BC2424" stroke-width="3" stroke-linecap="round"/>
<path d="M41 302C52.5424 321.69 74.6018 335.596 91 351" stroke="#BC2424" stroke-width="3" stroke-linecap="round"/>
</svg>
